# xmcd
# Copyright (C) 1995-1998 Ti Kan
#
# Track frame offsets:
#       150
#       13938
#       32118
#       47394
#       64714
#       77658
#       93051
#       115861
#       132402
#       145889
#       161807
#       177976
#
# Disc length: 2615 seconds
#
# Revision: 0
# Processed by: cddbd v1.5.2PL0 Copyright (c) Steve Scherf et al.
# Submitted via: CD-Import v1.0
#
DISCID=9a0a350c
DTITLE=Lesley Meguid - The Truth About Love Songs
DYEAR=1900
DGENRE=
TTITLE0=Kanoodle
TTITLE1=Love
TTITLE2=Talking Head
TTITLE3=The Truth About Love Songs
TTITLE4=How Do You Do It 
TTITLE5=Speed Of A Storm
TTITLE6=In A Town By An Open Shore
TTITLE7=Caravan Man
TTITLE8=Conversation
TTITLE9=The Kissing Song
TTITLE10=Firelies
TTITLE11=The Body
EXTD=
EXTT0=
EXTT1=
EXTT2=
EXTT3=
EXTT4=
EXTT5=
EXTT6=
EXTT7=
EXTT8=
EXTT9=
EXTT10=
EXTT11=
PLAYORDER=
